<?xml version="1.0" encoding="UTF-8" standalone="no"?>
<!-- Created with Inkscape (http://www.inkscape.org/) -->

<svg
   width="150mm"
   height="150mm"
   viewBox="0 0 150 150"
   version="1.1"
   id="svg1"
   xml:space="preserve"
   inkscape:version="1.3.2 (091e20e, 2023-11-25)"
   sodipodi:docname="logo.svg"
   inkscape:export-filename="../../../../../../../../logo.png"
   inkscape:export-xdpi="96"
   inkscape:export-ydpi="96"
   xmlns:inkscape="http://www.inkscape.org/namespaces/inkscape"
   xmlns:sodipodi="http://sodipodi.sourceforge.net/DTD/sodipodi-0.dtd"
   xmlns="http://www.w3.org/2000/svg"
   xmlns:svg="http://www.w3.org/2000/svg"><sodipodi:namedview
     id="namedview1"
     pagecolor="#ffffff"
     bordercolor="#000000"
     borderopacity="0.25"
     inkscape:showpageshadow="2"
     inkscape:pageopacity="0.0"
     inkscape:pagecheckerboard="0"
     inkscape:deskcolor="#d1d1d1"
     inkscape:document-units="mm"
     inkscape:zoom="1.069618"
     inkscape:cx="265.51535"
     inkscape:cy="279.07159"
     inkscape:window-width="1887"
     inkscape:window-height="1037"
     inkscape:window-x="33"
     inkscape:window-y="0"
     inkscape:window-maximized="1"
     inkscape:current-layer="layer1" /><defs
     id="defs1" /><g
     inkscape:label="Capa 1"
     inkscape:groupmode="layer"
     id="layer1"><path
       style="fill:#ff5e5b;fill-opacity:1;stroke-width:0.948281"
       d="m 109.89322,74.611383 c -1.83477,-0.954444 -3.14852,-1.456805 -4.32801,-1.654967 -0.93147,-0.156495 -1.68954,-0.402735 -1.68462,-0.547196 0.005,-0.144461 1.98706,-3.028827 4.40476,-6.409694 2.41769,-3.380866 4.70657,-6.598647 5.08641,-7.150622 0.37984,-0.551985 1.57511,-2.295721 2.65616,-3.874969 1.08106,-1.579256 2.4056,-3.498633 2.94343,-4.265289 4.7904,-6.82858 5.23718,-7.39825 6.484,-8.267425 1.23382,-0.860128 1.39825,-0.904365 3.36117,-0.904365 1.85719,0 2.18498,0.07539 3.27321,0.752697 1.80775,1.125154 2.75662,2.943567 2.74577,5.261982 -0.006,1.288856 -0.14931,2.03318 -0.53257,2.766789 -0.60984,1.167305 -16.92222,20.47606 -20.80279,24.624009 l -0.97247,1.039477 z"
       id="path22" /><path
       id="path3"
       style="fill:#ffcc00;stroke-width:0.948281"
       d="m 15.818557,108.79127 c -1.420748,-1.51241 -0.242611,-3.91572 1.721442,-3.51162 0.49525,0.1019 12.473181,0.25509 26.617628,0.34044 14.144434,0.0853 25.731696,0.18156 25.749448,0.21381 0.526514,0.95629 0.627364,1.63279 0.345032,2.3144 l -0.310808,0.75036 -25.624977,0.0951 c -14.093732,0.0523 -26.133041,0.17536 -26.754016,0.27348 -1.011327,0.15979 -1.193137,0.11016 -1.743749,-0.47598 z m 60.830518,0.50479 c -0.137994,-0.0539 -0.559315,-0.1659 -0.936276,-0.24896 -0.937422,-0.20656 -2.369222,-1.51398 -3.016499,-2.75445 -1.035873,-1.98519 -0.542938,-4.80594 1.109166,-6.346995 1.793995,-1.673412 5.070693,-1.757999 7.040897,-0.181757 3.856828,3.085652 2.133518,9.076552 -2.738511,9.520132 -0.664336,0.0605 -1.320784,0.0659 -1.458777,0.012 z m 2.294279,-3.74736 c 1.355975,-1.16635 0.731854,-3.20332 -1.09333,-3.56835 -0.676275,-0.13526 -0.926071,-0.0393 -1.567251,0.60185 -0.951638,0.95163 -1.003651,1.97353 -0.147477,2.89735 0.783479,0.8454 1.8744,0.87226 2.808058,0.0691 z m 46.003816,3.60553 c -0.21325,-0.13782 -2.76845,-0.24549 -5.89613,-0.24845 -3.03588,-0.003 -5.93497,-0.12057 -6.44242,-0.2615 -2.23118,-0.6197 -4.58007,-2.93354 -4.88491,-4.812 -0.30759,-1.89551 0.43804,-2.82434 2.02392,-2.52119 0.55989,0.10704 0.83433,0.41298 1.31783,1.46907 0.70385,1.53739 1.75518,2.52633 2.91226,2.73942 0.98764,0.18189 10.15329,-0.0142 11.73116,-0.25095 1.48758,-0.22322 2.22285,0.32325 2.42082,1.79917 0.11957,0.89154 0.0453,1.13944 -0.50621,1.69101 -0.67785,0.67785 -1.94873,0.86562 -2.67632,0.39542 z m -39.510342,-0.99144 c -0.307404,-0.59447 -0.324938,-0.86786 -0.08885,-1.38597 0.372485,-0.81751 1.073065,-1.00973 3.680201,-1.00973 1.91454,0 2.134238,0.052 2.587156,0.61139 0.339218,0.41902 0.445378,0.80884 0.337417,1.23899 -0.270469,1.07764 -0.805546,1.26929 -3.567678,1.27789 l -2.56527,0.008 z m 12.036885,-0.73973 c -2.048997,-0.95069 -3.389117,-3.01869 -3.384793,-5.22323 0.0028,-1.5206 1.116828,-3.554647 2.370976,-4.329753 0.978408,-0.999838 0.613007,-2.587744 0.617654,-2.802102 0.0109,-0.502722 0.160942,-0.968109 0.333434,-1.034214 0.172492,-0.0661 4.265286,-0.07709 9.095096,-0.02437 4.82981,0.05273 8.92799,0.09473 9.10707,0.09331 0.2403,-0.0019 0.30602,0.408358 0.2509,1.565649 l -0.0747,1.568124 -6.78708,0.06666 -6.78708,0.06666 1.18772,1.232243 c 1.81586,1.883913 2.18547,3.903723 1.12938,6.171653 -0.32392,0.69561 -0.9473,1.56629 -1.38529,1.93483 -1.46309,1.23111 -3.898731,1.53785 -5.673286,0.71449 z m 3.741187,-3.55697 c 0.7098,-0.84356 0.79698,-1.38984 0.37097,-2.32481 -0.90378,-1.983605 -3.986709,-1.23805 -3.986709,0.96413 0,2.01404 2.328597,2.89035 3.615739,1.36068 z m -12.531378,0.53322 c -1.109488,-0.44972 -1.589375,-1.87334 -1.009482,-2.99472 0.88577,-1.712885 3.439897,-1.29193 3.79975,0.62625 0.199575,1.06384 -0.198171,1.93381 -1.064634,2.3286 -0.703899,0.32071 -1.01503,0.3279 -1.725634,0.0399 z m -72.662217,-0.93236 c -1.096582,-1.25503 -1.141031,-2.36927 -0.13134,-3.29247 0.815617,-0.745743 1.550731,-0.881091 2.40004,-0.441895 0.661252,0.341945 3.117317,0.389265 20.200515,0.389265 18.989297,0 19.480127,-0.0121 20.821953,-0.514153 2.75429,-1.030516 3.305668,-2.394712 3.123143,-7.727187 -0.09265,-2.708384 -0.101817,-2.743688 -0.901161,-3.490393 -1.356998,-1.267623 -1.664526,-2.767945 -0.869696,-4.242977 1.718588,-3.189333 6.05066,-2.476358 6.727922,1.107288 0.208148,1.101352 -0.02077,1.876657 -0.842225,2.853026 l -0.690054,0.820129 -0.0095,4.279922 c -0.0085,4.10559 -0.03613,4.336117 -0.673758,5.65986 -1.007159,2.091025 -2.380734,3.333345 -4.514412,4.083035 -0.581192,0.20422 -6.892611,0.33971 -21.39806,0.45937 -11.315553,0.0933 -21.08411,0.24784 -21.707902,0.34334 -0.927542,0.14197 -1.207352,0.0898 -1.53588,-0.28616 z m 108.574565,0.004 c -0.60309,-0.32661 -1.48352,-0.37858 -5.14335,-0.30359 l -4.41569,0.0905 -0.2241,-0.90645 c -0.12326,-0.49854 -0.14938,-1.2042 -0.058,-1.56812 0.15164,-0.60418 0.27467,-0.66168 1.41579,-0.66168 h 1.24972 v -3.465329 c 0,-4.05243 -0.49611,-6.392312 -1.95168,-9.205073 -1.2429,-2.401814 -4.55834,-5.715903 -6.95525,-6.952451 -1.5599,-0.80474 -4.73018,-1.698655 -5.01482,-1.414029 -0.0588,0.05879 0.50554,0.557883 1.25414,1.109005 1.8777,1.382394 3.44796,3.496443 4.26886,5.747187 l 0.68809,1.886632 h 1.10684 c 1.49542,0 2.47083,0.906632 2.23641,2.078707 -0.087,0.435023 -0.26576,0.898524 -0.39724,1.030013 -0.14814,0.14813 -6.95545,0.215354 -17.898936,0.17674 -11.993008,-0.04229 -17.981209,0.02418 -18.66124,0.207323 -1.321221,0.355766 -2.562975,1.214225 -3.266542,2.258244 -0.467721,0.694047 -0.571301,1.190187 -0.574952,2.75393 l -0.0047,1.907362 -1.65308,1.693572 c -0.909202,0.931457 -1.697526,1.693567 -1.751835,1.693567 -0.05434,0 -0.09875,-1.56017 -0.09875,-3.467051 0,-4.095651 0.33076,-5.488268 1.721337,-7.24748 0.666746,-0.843495 1.483007,-1.479204 2.678883,-2.086312 l 1.719944,-0.873167 15.646495,-0.06998 15.646506,-0.07008 -0.16609,-0.557219 c -0.28188,-0.945673 -1.3257,-2.608483 -2.1632,-3.445985 -1.89897,-1.89896 -4.105078,-2.748439 -7.150813,-2.753484 -2.614969,-0.0047 -3.098222,0.303288 -0.96975,0.617302 1.479034,0.218199 1.803402,0.357037 2.108493,0.902497 0.50073,0.895234 0.196123,1.940021 -0.660563,2.265737 -0.428462,0.162905 -3.458218,0.229066 -8.209947,0.1793 l -7.530883,-0.0789 -1.425513,-0.70003 c -2.410775,-1.183871 -3.789385,-3.187863 -4.214206,-6.125901 -0.273322,-1.89034 -0.355463,-42.320964 -0.09397,-46.26895 0.153764,-2.321741 0.187266,-2.429457 0.883408,-2.840678 0.397975,-0.235089 1.020597,-0.702686 1.383599,-1.039117 0.363011,-0.336421 0.726999,-0.544749 0.808864,-0.46296 0.08184,0.08184 0.205303,11.514515 0.2743,25.406039 l 0.125448,25.257319 0.700798,1.192197 c 1.102926,1.876296 2.089432,2.256718 6.20752,2.393725 3.394673,0.11295 3.395802,0.112798 3.671666,-0.492641 0.151763,-0.333093 0.865126,-1.250289 1.58525,-2.038215 5.301381,-5.800556 16.601689,-4.998263 23.383459,1.660164 4.32951,4.250772 6.22603,9.148593 6.22603,16.078902 v 3.159548 h 1.74149 c 0.95781,0 1.80293,-0.0994 1.87803,-0.22094 0.0751,-0.121513 0.43861,-0.278681 0.80779,-0.349252 1.66554,-0.318385 3.04817,1.059492 2.73551,2.726112 -0.28015,1.49329 -1.91596,2.05111 -3.49973,1.19343 z M 82.313552,97.96646 c -1.304578,-1.097739 -0.97578,-2.489587 0.804569,-3.405901 0.94755,-0.487681 1.542226,-0.554715 5.699564,-0.642431 2.572296,-0.05424 4.789935,0.0038 4.974281,0.131166 0.459603,0.316545 0.663768,2.120621 0.313957,2.774251 -0.275495,0.514774 -0.457877,0.538093 -4.230744,0.540985 -3.737894,0.0028 -3.999591,0.03547 -5.034763,0.627249 -1.363693,0.779582 -1.57277,0.777486 -2.526864,-0.02532 z M 21.779863,96.796984 c -0.05842,-0.310486 -0.06018,-1.039685 -0.0039,-1.620441 l 0.10234,-1.05592 15.969465,-0.07311 c 14.648694,-0.06704 16.035829,-0.109422 16.771913,-0.511939 0.825449,-0.451381 2.082888,-1.899453 2.082888,-2.398666 0,-0.883977 2.286595,-1.077455 2.871115,-0.24294 1.244855,1.777287 -0.646974,4.783497 -3.738109,5.940039 -1.379596,0.516168 -1.759819,0.527519 -17.679708,0.527519 H 21.886091 Z m 9.661998,-6.147029 c -0.330014,-0.783906 -0.346714,-1.129232 -0.100097,-2.069916 0.505729,-1.929049 1.982293,-3.781563 3.903312,-4.89713 2.741527,-1.592058 7.079288,-1.197365 8.639493,0.786116 0.657946,0.83644 0.655917,1.115689 -0.01432,1.967729 -0.595055,0.756481 -0.941187,0.760967 -3.414284,0.04419 -1.166119,-0.337967 -1.480634,-0.339674 -2.727935,-0.01479 -0.775415,0.201974 -1.742608,0.604168 -2.149319,0.893773 -0.858508,0.611309 -2.669705,2.833595 -2.984731,3.662174 -0.313658,0.824985 -0.7008,0.699926 -1.152139,-0.372172 z m 6.271509,0.702856 c -1.118298,-0.480428 -1.411904,-1.895499 -0.554222,-2.671164 0.466994,-0.422326 0.956525,-0.479972 4.206248,-0.495259 3.393346,-0.01593 3.786247,-0.06695 5.080839,-0.659661 1.52384,-0.697631 2.37971,-1.635746 3.286371,-3.602139 l 0.57205,-1.240683 V 69.386253 c 0,-12.960879 -0.01309,-13.319898 -0.515229,-14.175807 -0.314023,-0.535209 -0.999896,-1.129886 -1.756301,-1.522758 -2.399975,-1.246553 -3.008856,-3.96991 -1.31811,-5.895564 1.444677,-1.645402 4.018415,-1.659019 5.507082,-0.02911 1.188186,1.300899 1.381597,2.607791 0.66594,4.499933 -0.212738,0.562463 -0.150796,0.934691 0.334022,2.007197 l 0.595179,1.316678 0.07558,12.79586 c 0.05054,8.552077 -0.0166,13.33674 -0.202354,14.426703 -0.614818,3.607524 -3.207635,7.164695 -5.94863,8.161111 -1.37641,0.50036 -9.070897,0.79372 -10.028472,0.382346 z M 50.681,51.446958 c 0.70022,-0.70022 0.635168,-1.614969 -0.159283,-2.239886 -0.860043,-0.676503 -1.2332,-0.655727 -2.00034,0.111413 -0.463814,0.463814 -0.586114,0.780179 -0.460722,1.191771 0.432577,1.419927 1.688252,1.868795 2.620345,0.936702 z M 22.83119,90.86255 c 0,-0.971201 1.253405,-4.435412 2.187534,-6.046 0.520233,-0.896959 1.906204,-2.602793 3.079936,-3.790722 3.289137,-3.32893 6.207091,-4.556033 10.817152,-4.548978 2.589398,0.0038 4.504849,0.430823 6.523568,1.45378 2.186753,1.108123 2.884574,2.822681 1.569745,3.856923 -0.853007,0.670975 -1.202505,0.655072 -2.192083,-0.09971 -2.877036,-2.194425 -7.677995,-2.465121 -11.182137,-0.630493 -2.915734,1.526571 -5.565175,4.723471 -6.786826,8.189199 l -0.693684,1.967938 -1.661602,0.07416 c -1.517493,0.0678 -1.661603,0.03082 -1.661603,-0.42612 z m 32.409731,-2.612304 c -0.795665,-0.846948 -0.740399,-2.240389 0.115557,-2.913687 1.113509,-0.875889 2.391617,-0.602319 3.061416,0.655271 0.42573,0.799334 0.359578,1.43087 -0.228128,2.17802 -0.694587,0.88303 -2.157344,0.922905 -2.948845,0.08042 z m 15.51202,-3.114457 -1.379947,-1.930661 -0.07387,-27.106826 c -0.04059,-14.908754 -0.0047,-27.594547 0.0807,-28.190646 l 0.15457,-1.083827 1.185075,1.108502 c 0.651782,0.609668 1.326872,1.155764 1.500199,1.213533 0.315332,0.105117 0.33369,3.019335 0.298044,47.328284 -0.0047,5.830275 -0.09322,10.598646 -0.196692,10.596399 -0.103495,-0.0019 -0.809158,-0.872902 -1.568124,-1.934758 z M 56.86102,82.131466 C 56.651848,81.922285 56.704383,32.136238 56.91555,30.436815 l 0.16336,-1.314563 1.562649,0.93821 1.562643,0.938209 0.0057,24.301701 0.0057,24.301707 -1.19177,1.113281 c -1.353955,1.264798 -1.933891,1.644584 -2.162379,1.416106 z m 63.1305,-1.642925 c -1.74408,-1.868501 0.0144,-4.55534 2.34423,-3.581864 1.45491,0.607895 1.78171,2.891962 0.53839,3.762825 -0.82847,0.580281 -2.25569,0.490687 -2.88262,-0.180961 z M 22.488677,78.275416 c -0.516993,-0.40667 -0.661084,-0.738379 -0.661084,-1.521886 0,-1.334705 0.328317,-1.876325 1.339726,-2.21012 1.526839,-0.503897 2.92556,0.475762 2.92556,2.049064 0,1.91913 -2.073234,2.887201 -3.604202,1.682942 z m 62.851464,0.08838 c -0.325715,-0.06183 -1.076526,-0.596687 -1.66849,-1.188642 -0.834306,-0.834306 -1.142042,-1.379549 -1.368795,-2.425189 -0.214188,-0.987653 -0.271294,-7.497144 -0.213259,-24.306193 0.07918,-22.945289 0.07956,-22.957892 0.623665,-24.135457 0.541895,-1.172767 0.542189,-1.182534 0.06268,-2.122973 -1.436379,-2.817379 0.556944,-6.031045 3.584861,-5.779561 2.24934,0.186812 3.891942,2.161227 3.642108,4.377813 -0.1617,1.434587 -0.790742,2.275153 -2.334818,3.119938 -2.249483,1.230707 -2.098061,-0.592818 -2.105553,25.355666 -0.0066,22.439057 6.93e-4,22.77638 0.495212,23.270899 0.275997,0.275997 0.789196,0.501801 1.140459,0.501801 0.351252,0 0.915773,0.277126 1.254489,0.615842 1.283062,1.283061 0.449741,2.923587 -1.454074,2.862584 -0.586474,-0.01878 -1.332808,-0.08478 -1.658524,-0.146528 z m 1.858108,-54.880285 c 0.711998,-0.711998 0.775684,-1.302378 0.225265,-2.088218 -0.817229,-1.166746 -2.871119,-0.440657 -2.871119,1.015001 0,0.563212 1.087052,1.689058 1.630853,1.689058 0.219536,0 0.676285,-0.277125 1.015001,-0.615841 z M 31.00578,75.315747 c -0.125027,-0.202297 2.054054,-3.115746 2.938656,-3.929011 2.294852,-2.109791 4.07877,-2.627315 9.056317,-2.627315 2.633783,0 3.909704,0.09331 4.117481,0.301079 0.396666,0.396666 0.387553,2.326104 -0.01252,2.655811 -0.172492,0.142138 -2.007197,0.298936 -4.077113,0.348436 -3.988165,0.09537 -4.583379,0.249199 -6.207246,1.604197 -0.378105,0.315503 -1.337794,0.701472 -2.132643,0.857701 -0.794849,0.156239 -1.923018,0.439205 -2.507044,0.628814 -0.584026,0.189609 -1.113164,0.261735 -1.175862,0.160288 z m 59.937817,-1.38796 c -0.217061,-0.331273 -0.604813,-1.149828 -0.861683,-1.81902 -0.256871,-0.669192 -0.715241,-1.837683 -1.018615,-2.596648 -1.175839,-2.941699 -0.902886,-6.718909 0.650758,-9.005289 0.334961,-0.492945 0.609023,-1.202477 0.609023,-1.576735 0,-1.104813 0.959878,-1.99137 2.32232,-2.144934 1.09095,-0.122973 1.241214,-0.06818 2.061638,0.75229 1.461831,1.461821 1.122698,3.292088 -0.775305,4.184259 -2.300689,1.081447 -2.674407,3.523962 -1.225112,8.007072 0.482978,1.494006 0.878146,2.951485 0.878146,3.238842 0,0.599551 -1.099655,1.562473 -1.784342,1.562473 -0.254196,0 -0.639776,-0.271038 -0.856828,-0.60231 z m 5.317436,-1.070353 c -0.260844,-0.260834 -0.196399,-4.098013 0.06884,-4.098013 -0.961509,-0.54822 -2.727217,-3.953154 1.083486,-5.931438 1.787869,-0.928148 4.083721,-0.278453 4.987241,1.411336 1.02444,1.915915 0.27592,3.929124 -1.85373,4.985793 l -1.191404,0.591139 v 1.604225 1.604225 H 97.89189 c -0.804967,0 -1.538851,-0.07529 -1.630843,-0.167267 z M 63.36769,72.377889 c -1.093595,-1.093586 -1.078337,-2.487331 0.03679,-3.364518 0.863286,-0.679064 1.634892,-0.635481 2.562097,0.144698 0.979526,0.824226 1.085506,2.300471 0.222836,3.104167 -0.667769,0.62212 -2.250426,0.686992 -2.821755,0.115653 z M 42.453965,65.879872 c -1.673886,-1.40849 -2.488307,-5.413022 -1.487615,-7.314713 1.345989,-2.557882 4.736889,-3.078479 6.342271,-0.973704 1.56856,2.056489 0.681662,5.044208 -1.724856,5.81056 l -0.706498,0.22499 1.273683,1.205918 c 0.700524,0.663256 1.209361,1.309983 1.130768,1.437167 -0.07861,0.127174 -1.030828,0.231238 -2.11605,0.231238 -1.733732,0 -2.062757,-0.07539 -2.711703,-0.621456 z m 20.679538,-0.05642 c -0.08715,-0.08715 -0.158439,-6.569868 -0.158439,-14.406069 0,-10.060585 -0.08335,-14.430584 -0.283649,-14.870169 -0.594221,-1.30417 1.094277,-2.95451 2.628785,-2.569375 1.33286,0.334525 1.318864,0.150957 1.175085,15.420361 l -0.133081,14.133798 -1.129047,0.988336 c -1.351394,1.182971 -1.887239,1.515542 -2.099654,1.303118 z M 33.814339,65.116801 c -2.426819,-1.352979 -0.751709,-5.19744 1.80347,-4.139046 1.458482,0.604121 1.924486,2.840669 0.803293,3.855339 -0.660784,0.597995 -1.817264,0.72387 -2.606763,0.283707 z m 3.22043,-8.714129 c -0.906204,-0.815313 -0.98074,-2.371451 -0.153223,-3.198968 1.184593,-1.184592 3.3049,-0.348464 3.66353,1.444677 0.132598,0.662991 0.03338,0.918609 -0.604083,1.556062 -0.933277,0.933269 -2.007774,1.006562 -2.906224,0.198229 z M 101.2595,55.944349 c -0.8143,-0.967739 -0.83165,-1.999165 -0.0489,-2.909126 0.48014,-0.558176 0.81265,-0.698256 1.65748,-0.698256 1.33172,0 2.2581,0.932112 2.2581,2.27208 0,2.023972 -2.54704,2.903559 -3.86664,1.335302 z m -9.623421,-3.524237 c -1.383295,-0.399198 -2.960674,-2.140914 -3.441007,-3.799495 -1.023365,-3.533646 1.605335,-6.969825 5.318915,-6.952766 3.989198,0.0183 6.755193,4.512241 4.949892,8.042123 -0.51468,1.006343 -2.235591,2.429248 -3.293227,2.72294 -1.140127,0.316592 -2.409087,0.311993 -3.534573,-0.0128 z m 3.514252,-3.74458 c 1.10009,-1.358563 0.08933,-3.500608 -1.65181,-3.500608 -1.125486,0 -1.901416,0.660696 -2.078925,1.770175 -0.116923,0.730756 -0.01669,1.04183 0.55445,1.720571 0.630645,0.749474 0.794384,0.815502 1.715904,0.691904 0.621209,-0.08335 1.191069,-0.34947 1.460381,-0.682042 z m -58.10017,-2.758777 c -1.148005,-0.903019 -1.117181,-2.777684 0.06054,-3.681917 1.243096,-0.954416 3.534332,0.300974 3.534332,1.936493 0,1.049642 -1.180012,2.258093 -2.204957,2.258093 -0.405989,0 -1.031451,-0.230698 -1.389917,-0.512669 z m 8.361956,-3.398524 c -4.96477,-2.802406 -3.048476,-10.175002 2.644706,-10.175002 2.279553,0 4.269889,1.395897 5.181879,3.634238 0.536499,1.316763 0.55555,2.320603 0.07017,3.696406 -0.466848,1.323184 -0.916703,1.852182 -2.363333,2.779126 -1.532108,0.981717 -3.861085,1.00917 -5.533388,0.06524 z m 4.15124,-3.228032 c 0.906755,-0.906746 0.841513,-2.160458 -0.156097,-2.999885 -0.424573,-0.357255 -1.054232,-0.649553 -1.399245,-0.649553 -0.770525,0 -2.094097,1.264323 -2.094097,2.00035 0,0.667751 0.636808,1.926318 1.061041,2.097008 0.8489,0.341552 1.997742,0.142745 2.588398,-0.44792 z m 49.560449,1.973486 c -1.556972,-1.310097 -0.695611,-3.615737 1.350794,-3.615737 1.8088,0 2.68718,2.477857 1.30104,3.670168 -0.8947,0.769586 -1.692,0.753219 -2.651834,-0.05443 z M 88.656354,34.895573 c -1.367269,-0.565497 -1.755049,-2.379226 -0.728223,-3.406053 1.286722,-1.286721 3.649449,-0.402374 3.649449,1.365951 0,1.419472 -1.644689,2.568076 -2.921226,2.040102 z M 58.776628,29.203491 c -1.901261,-0.673156 -3.582126,-3.143521 -3.578039,-5.258651 0.0038,-2.029292 1.291729,-3.951713 3.174062,-4.738198 0.495107,-0.206877 1.546086,-0.376135 2.335492,-0.376135 3.5768,0 6.091483,3.110549 5.316018,6.575671 -0.742499,3.317806 -3.911786,4.97834 -7.247533,3.797313 z m 3.548883,-3.617955 c 0.780179,-0.927191 0.823762,-1.698798 0.144698,-2.562093 -1.518519,-1.930472 -4.574078,-0.238663 -3.628899,2.009264 0.647088,1.538964 2.417983,1.819949 3.484201,0.552829 z m 10.283149,3.173212 c -1.518937,-0.661198 -2.389202,-2.69801 -2.011967,-4.708858 0.149677,-0.797836 0.729787,-1.574487 1.882091,-2.519761 0.464325,-0.380896 0.53225,-0.70151 0.53225,-2.512337 V 16.942073 L 71.701279,16.630942 C 65.911657,15.25566 66.221687,6.9314167 72.092501,6.1267343 c 5.131725,-0.703387 8.221782,5.4680887 4.715458,9.4177527 -0.473875,0.533797 -0.535238,0.90392 -0.535238,3.228563 0,2.550714 0.02115,2.649762 0.741385,3.470043 1.038234,1.182487 1.425995,2.590361 1.054734,3.829527 -0.752422,2.511359 -3.151003,3.691333 -5.46018,2.686128 z m 2.752081,-2.419472 c 0.79445,-0.624917 0.859502,-1.539666 0.159282,-2.239886 -0.99375,-0.99375 -2.759885,-0.271236 -2.759885,1.129052 0,0.738122 0.805527,1.630843 1.471561,1.630843 0.257373,0 0.765443,-0.234007 1.129042,-0.520009 z M 74.40238,12.945781 c 1.210935,-1.210925 0.56912,-3.0927121 -1.204999,-3.5330461 -0.852144,-0.2115045 -1.860147,0.3866613 -2.212272,1.3128091 -0.299116,0.786741 0.103306,2.211409 0.727521,2.575615 0.78932,0.460551 2.038936,0.295446 2.68975,-0.355378 z M 48.673813,27.434787 C 47.097211,26.85846 46.61043,24.71106 47.802523,23.59115 c 1.823771,-1.713344 4.66665,0.521355 3.509624,2.758804 -0.525442,1.016101 -1.608331,1.461367 -2.638334,1.084833 z" /><path
       id="path1"
       style="fill:#ff5e5b;fill-opacity:1;stroke-width:0.948281"
       d="m 69.6239,143.86965 c -2.701462,-0.16628 -7.644568,-0.85157 -9.750823,-1.35181 -11.066439,-2.62827 -21.167223,-8.70361 -28.293681,-17.01786 -2.393332,-2.79224 -4.984718,-6.34428 -4.984718,-6.8326 0,-0.13839 17.9773,-0.22988 45.169737,-0.22988 40.098685,0 45.186085,0.0427 45.315455,0.37974 0.36967,0.96334 -6.98323,9.52654 -11.19402,13.03659 -6.008673,5.00873 -13.78023,8.81454 -21.960695,10.75436 -4.036299,0.95712 -10.287478,1.50851 -14.301255,1.26146 z m 4.663596,-10.44845 c 1.051643,-0.70871 1.475221,-1.51503 1.478796,-2.81509 0.0057,-1.90731 -1.472557,-3.38714 -3.382507,-3.38714 -2.572439,0 -4.194994,2.72799 -2.998605,5.04154 0.869108,1.68069 3.282719,2.25214 4.902316,1.16069 z m -20.54171,-2.93711 c 0.740778,-0.006 2.174919,-1.47449 2.349697,-2.40614 0.53263,-2.83913 -1.70626,-4.96063 -4.387381,-4.15735 -1.4195,0.42529 -2.094676,1.29865 -2.225738,2.87906 -0.147277,1.776 0.385561,2.80914 1.779799,3.45092 0.577332,0.26574 1.275494,0.42776 1.551482,0.36006 0.275988,-0.0677 0.69545,-0.12466 0.932141,-0.12655 z m 39.661908,-0.42218 c 1.574848,-0.80489 2.156902,-3.1451 1.176722,-4.73108 -1.789984,-2.89625 -6.264616,-1.58413 -6.267594,1.83788 -0.0028,2.80856 2.487634,4.2237 5.090872,2.8932 z m -69.949256,-16.3915 -0.884456,-1.75629 h 49.179405 c 27.048668,0 49.179403,0.0956 49.179403,0.21235 0,0.30736 -0.75335,1.80704 -1.31125,2.61026 l -0.47922,0.68998 H 71.742605 24.342893 Z" /></g></svg>
