<svg width="16" height="16" viewBox="0 0 16 16" fill="none" xmlns="http://www.w3.org/2000/svg">
<path d="M8 15C6.14348 15 4.36301 14.2625 3.05025 12.9497C1.7375 11.637 1 9.85652 1 8C1 6.14348 1.7375 4.36301 3.05025 3.05025C4.36301 1.7375 6.14348 1 8 1C9.85652 1 11.637 1.7375 12.9497 3.05025C14.2625 4.36301 15 6.14348 15 8C15 9.85652 14.2625 11.637 12.9497 12.9497C11.637 14.2625 9.85652 15 8 15ZM8 16C10.1217 16 12.1566 15.1571 13.6569 13.6569C15.1571 12.1566 16 10.1217 16 8C16 5.87827 15.1571 3.84344 13.6569 2.34315C12.1566 0.842855 10.1217 0 8 0C5.87827 0 3.84344 0.842855 2.34315 2.34315C0.842855 3.84344 0 5.87827 0 8C0 10.1217 0.842855 12.1566 2.34315 13.6569C3.84344 15.1571 5.87827 16 8 16Z" fill="#F83B3B"/>
<path d="M4.646 4.646C4.69245 4.59944 4.74762 4.56249 4.80837 4.53729C4.86911 4.51208 4.93423 4.49911 5 4.49911C5.06577 4.49911 5.13089 4.51208 5.19163 4.53729C5.25238 4.56249 5.30755 4.59944 5.354 4.646L8 7.293L10.646 4.646C10.6925 4.59951 10.7477 4.56264 10.8084 4.53748C10.8692 4.51232 10.9343 4.49937 11 4.49937C11.0657 4.49937 11.1308 4.51232 11.1916 4.53748C11.2523 4.56264 11.3075 4.59951 11.354 4.646C11.4005 4.69249 11.4374 4.74768 11.4625 4.80842C11.4877 4.86916 11.5006 4.93426 11.5006 5C11.5006 5.06574 11.4877 5.13084 11.4625 5.19158C11.4374 5.25232 11.4005 5.30751 11.354 5.354L8.707 8L11.354 10.646C11.4005 10.6925 11.4374 10.7477 11.4625 10.8084C11.4877 10.8692 11.5006 10.9343 11.5006 11C11.5006 11.0657 11.4877 11.1308 11.4625 11.1916C11.4374 11.2523 11.4005 11.3075 11.354 11.354C11.3075 11.4005 11.2523 11.4374 11.1916 11.4625C11.1308 11.4877 11.0657 11.5006 11 11.5006C10.9343 11.5006 10.8692 11.4877 10.8084 11.4625C10.7477 11.4374 10.6925 11.4005 10.646 11.354L8 8.707L5.354 11.354C5.30751 11.4005 5.25232 11.4374 5.19158 11.4625C5.13084 11.4877 5.06574 11.5006 5 11.5006C4.93426 11.5006 4.86916 11.4877 4.80842 11.4625C4.74768 11.4374 4.69249 11.4005 4.646 11.354C4.59951 11.3075 4.56264 11.2523 4.53748 11.1916C4.51232 11.1308 4.49937 11.0657 4.49937 11C4.49937 10.9343 4.51232 10.8692 4.53748 10.8084C4.56264 10.7477 4.59951 10.6925 4.646 10.646L7.293 8L4.646 5.354C4.59944 5.30755 4.56249 5.25238 4.53729 5.19163C4.51208 5.13089 4.49911 5.06577 4.49911 5C4.49911 4.93423 4.51208 4.86911 4.53729 4.80837C4.56249 4.74762 4.59944 4.69245 4.646 4.646Z" fill="#F83B3B"/>
</svg>
