<svg width="16" height="16" viewBox="0 0 16 16" fill="none" xmlns="http://www.w3.org/2000/svg">
<path d="M8 15C6.14348 15 4.36301 14.2625 3.05025 12.9497C1.7375 11.637 1 9.85652 1 8C1 6.14348 1.7375 4.36301 3.05025 3.05025C4.36301 1.7375 6.14348 1 8 1C9.85652 1 11.637 1.7375 12.9497 3.05025C14.2625 4.36301 15 6.14348 15 8C15 9.85652 14.2625 11.637 12.9497 12.9497C11.637 14.2625 9.85652 15 8 15ZM8 16C10.1217 16 12.1566 15.1571 13.6569 13.6569C15.1571 12.1566 16 10.1217 16 8C16 5.87827 15.1571 3.84344 13.6569 2.34315C12.1566 0.842855 10.1217 0 8 0C5.87827 0 3.84344 0.842855 2.34315 2.34315C0.842855 3.84344 0 5.87827 0 8C0 10.1217 0.842855 12.1566 2.34315 13.6569C3.84344 15.1571 5.87827 16 8 16Z" fill="#22C81F"/>
<path d="M10.97 4.97L10.95 4.992L7.47697 9.417L5.38397 7.323C5.2418 7.19052 5.05375 7.1184 4.85945 7.12182C4.66515 7.12525 4.47976 7.20396 4.34235 7.34138C4.20494 7.47879 4.12623 7.66417 4.1228 7.85848C4.11937 8.05278 4.19149 8.24082 4.32397 8.383L6.96997 11.03C7.04125 11.1011 7.12614 11.1572 7.21956 11.1949C7.31298 11.2325 7.41302 11.2509 7.51372 11.2491C7.61442 11.2472 7.71371 11.2251 7.80567 11.184C7.89763 11.1429 7.98038 11.0837 8.04897 11.01L12.041 6.02C12.1769 5.87733 12.2512 5.68689 12.2479 5.48987C12.2445 5.29284 12.1637 5.10505 12.023 4.96709C11.8823 4.82914 11.693 4.75211 11.4959 4.75265C11.2988 4.75319 11.1099 4.83127 10.97 4.97Z" fill="#22C81F"/>
</svg>
