<svg width="14" height="14" viewBox="0 0 14 14" fill="none" xmlns="http://www.w3.org/2000/svg">
<path d="M7 7C6.07174 7 5.1815 6.63125 4.52513 5.97487C3.86875 5.3185 3.5 4.42826 3.5 3.5C3.5 2.57174 3.86875 1.6815 4.52513 1.02513C5.1815 0.368749 6.07174 0 7 0C7.92826 0 8.8185 0.368749 9.47487 1.02513C10.1313 1.6815 10.5 2.57174 10.5 3.5C10.5 4.42826 10.1313 5.3185 9.47487 5.97487C8.8185 6.63125 7.92826 7 7 7ZM4.66667 3.5C4.66667 4.11884 4.9125 4.71233 5.35009 5.14992C5.78767 5.5875 6.38116 5.83333 7 5.83333C7.61884 5.83333 8.21233 5.5875 8.64992 5.14992C9.0875 4.71233 9.33333 4.11884 9.33333 3.5C9.33333 2.88116 9.0875 2.28767 8.64992 1.85008C8.21233 1.4125 7.61884 1.16667 7 1.16667C6.38116 1.16667 5.78767 1.4125 5.35009 1.85008C4.9125 2.28767 4.66667 2.88116 4.66667 3.5ZM0 12.8333C0 14 1.16667 14 1.16667 14H12.8333C12.8333 14 14 14 14 12.8333C14 11.6667 12.8333 8.16667 7 8.16667C1.16667 8.16667 0 11.6667 0 12.8333ZM1.16667 12.8287C1.16783 12.5417 1.34633 11.6783 2.13733 10.8873C2.898 10.1267 4.3295 9.33333 7 9.33333C9.6705 9.33333 11.102 10.1267 11.8627 10.8873C12.6537 11.6783 12.831 12.5417 12.8333 12.8287H1.16667Z" fill="#7C7C7C"/>
</svg>
